<?xml version="1.0" encoding="ISO-8859-1"?>
<!DOCTYPE svg PUBLIC "-//W3C//DTD SVG 1.0//EN" "http://www.w3.org/TR/2001/REC-SVG-20010904/DTD/svg10.dtd">
<!-- generated by Grace-5.1.25 -->
<svg xml:space="preserve" width="16.6667in" height="11.1111in" viewBox="0.0000 0.0000 1200.0000 800.0000">
 <g transform="translate(0,800.0000) scale(1,-1)">
  <g style="fill:#FFFFFF; fill-rule:nonzero">
   <path  d="M0.0000,0.0000L0.0000,800.0000L1200.0000,800.0000L1200.0000,0.0000z"/>
  </g>
  <g style="fill:none; stroke:#0000FF; stroke-width:  1.2000; stroke-linecap:butt; stroke-linejoin:miter; stroke-dasharray:none">
   <path d="M94.5455,648.0000L96.0000,647.6800L97.4545,647.3600L98.9091,647.0400L100.3636,647.0400L101.8182,647.0400L103.2727,646.7200L104.7273,646.7200L106.1818,646.7200L107.6364,646.4000
            L109.0909,646.0800L110.5455,646.0800L112.0000,645.7600L113.4545,645.7600L114.9091,645.7600L116.3636,646.0800L117.8182,646.0800L119.2727,645.4400L120.7273,645.4400L122.1818,645.1200
            L123.6364,645.1200L125.0909,645.1200L126.5455,645.4400L128.0000,645.1200L129.4545,645.4400L130.9091,646.0800L132.3636,647.3600L133.8182,649.2800L135.2727,650.5600L136.7273,650.8800
            L138.1818,650.2400L139.6364,649.2800L141.0909,648.0000L142.5455,647.3600L144.0000,647.6800L145.4545,648.0000L146.9091,648.9600L148.3636,649.9200L149.8182,651.2000L151.2727,651.5200
            L152.7273,650.8800L154.1818,649.6000L155.6364,647.6800L157.0909,645.7600L158.5455,644.1600L160.0000,642.8800L161.4545,642.5600L162.9091,642.8800L164.3636,643.2000L165.8182,643.8400
            L167.2727,645.1200L168.7273,646.7200L170.1818,648.6400L171.6364,651.2000L173.0909,653.7600L174.5455,656.3200L176.0000,658.8800L177.4545,661.1200L178.9091,662.4000L180.3636,663.0400
            L181.8182,662.0800L183.2727,660.4800L184.7273,657.2800L186.1818,653.4400L187.6364,648.6400L189.0909,643.5200L190.5455,638.0800L192.0000,633.2800L193.4545,628.1600L194.9091,624.6400
            L196.3636,621.1200L197.8182,618.8800L199.2727,617.9200L200.7273,617.2800L202.1818,618.5600L203.6364,620.1600L205.0909,623.6800L206.5455,627.5200L208.0000,634.2400L209.4545,638.7200
            L210.9091,649.6000L212.3636,657.9200L213.8182,669.1200L215.2727,678.4000L216.7273,688.0000L218.1818,696.9600L219.6364,706.5600L221.0909,712.9600L222.5455,718.4000L224.0000,721.2800
            L225.4545,722.5600L226.9091,721.9200L228.3636,719.3600L229.8182,715.2000L231.2727,709.7600L232.7273,703.3600L234.1818,696.0000L235.6364,688.6400L237.0909,682.8800L238.5455,672.9600
            L240.0000,666.5600L241.4545,658.8800L242.9091,652.4800L244.3636,647.0400L245.8182,641.6000L247.2727,636.4800L248.7273,631.6800L250.1818,627.8400L251.6364,623.3600L253.0909,619.5200
            L254.5455,615.6800L256.0000,612.4800L257.4545,609.6000L258.9091,607.0400L260.3636,604.8000L261.8182,602.8800L263.2727,601.2800L264.7273,600.0000L266.1818,599.0400L267.6364,598.4000
            L269.0909,598.4000L270.5455,598.4000L272.0000,598.7200L273.4545,600.3200L274.9091,601.6000L276.3636,604.8000L277.8182,611.8400L279.2727,608.6400L280.7273,606.0800L282.1818,603.2000
            L283.6364,600.6400L285.0909,598.4000L286.5455,596.1600L288.0000,593.9200L289.4545,592.0000L290.9091,590.5600L292.3636,590.4960L293.8182,590.3360L295.2727,590.5280L296.7273,590.6880
            L298.1818,590.6240L299.6364,590.4640L301.0909,590.5280L302.5455,590.5280L304.0000,590.5280L305.4545,590.5600L306.9091,590.5600L308.3636,590.5280L309.8182,590.6240L311.2727,590.6880
            L312.7273,590.5600L314.1818,590.5600L315.6364,590.5600L317.0909,590.5280L318.5455,590.5600L320.0000,590.5280L321.4545,590.5280L322.9091,590.4960L324.3636,590.5600L325.8182,590.5920
            L327.2727,590.5280L328.7273,590.6240L330.1818,590.5280L331.6364,590.5600L333.0909,590.5280L334.5455,590.4640L336.0000,590.6560L337.4545,590.6560L338.9091,590.5600L340.3636,590.5920
            L341.8182,590.5920L343.2727,590.5600L344.7273,590.5600L346.1818,590.5600L347.6364,590.6240L349.0909,590.5920L350.5455,590.5280L352.0000,590.4960L353.4545,590.5280L354.9091,590.5920
            L356.3636,590.6560L357.8182,590.6240L359.2727,590.5920L360.7273,590.5280L362.1818,590.5280L363.6364,590.6560L365.0909,591.6160L366.5455,603.2000L368.0000,661.4400L369.4545,715.2000
            L370.9091,728.3200L372.3636,682.2400L373.8182,620.4800L375.2727,574.9760L376.7273,561.8400L378.1818,560.1235L379.6364,560.0047L381.0909,560.0001L382.5455,560.0000L384.0000,560.0000
            L385.4545,560.0000L386.9091,560.0000L388.3636,560.0000L389.8182,560.0000L391.2727,560.0000L392.7273,560.0000L394.1818,560.0000L395.6364,560.0000L397.0909,560.0000L398.5455,560.0000
            L400.0000,560.0000L400.0800,560.0000"/>
  </g>
  <g style="fill:none; stroke:#FF0000; stroke-width:  1.2000; stroke-linecap:butt; stroke-linejoin:miter; stroke-dasharray:none">
   <path d="M94.5455,648.9600L96.0000,648.6400L97.4545,648.3200L98.9091,648.3200L100.3636,648.0000L101.8182,648.0000L103.2727,648.0000L104.7273,647.6800L106.1818,647.6800L107.6364,647.6800
            L109.0909,647.6800L110.5455,647.6800L112.0000,647.6800L113.4545,647.6800L114.9091,647.6800L116.3636,647.6800L117.8182,647.6800L119.2727,647.6800L120.7273,647.6800L122.1818,647.6800
            L123.6364,647.6800L125.0909,647.6800L126.5455,647.3600L128.0000,647.3600L129.4545,647.3600L130.9091,647.3600L132.3636,647.6800L133.8182,648.0000L135.2727,647.6800L136.7273,647.6800
            L138.1818,647.6800L139.6364,647.6800L141.0909,648.0000L142.5455,648.3200L144.0000,648.6400L145.4545,648.3200L146.9091,648.0000L148.3636,648.3200L149.8182,648.6400L151.2727,648.6400
            L152.7273,648.9600L154.1818,649.6000L155.6364,650.8800L157.0909,652.1600L158.5455,654.0800L160.0000,655.3600L161.4545,656.0000L162.9091,655.3600L164.3636,654.0800L165.8182,653.1200
            L167.2727,652.1600L168.7273,651.8400L170.1818,652.1600L171.6364,652.8000L173.0909,653.7600L174.5455,655.0400L176.0000,655.0400L177.4545,654.4000L178.9091,653.1200L180.3636,651.5200
            L181.8182,650.2400L183.2727,648.9600L184.7273,647.6800L186.1818,646.7200L187.6364,646.4000L189.0909,647.0400L190.5455,648.3200L192.0000,650.2400L193.4545,651.5200L194.9091,652.4800
            L196.3636,653.1200L197.8182,653.4400L199.2727,653.1200L200.7273,652.1600L202.1818,650.2400L203.6364,647.3600L205.0909,644.8000L206.5455,641.2800L208.0000,639.0400L209.4545,638.4000
            L210.9091,638.0800L212.3636,639.6800L213.8182,644.1600L215.2727,651.2000L216.7273,658.5600L218.1818,667.2000L219.6364,678.0800L221.0909,687.0400L222.5455,694.7200L224.0000,701.4400
            L225.4545,704.3200L226.9091,704.6400L228.3636,702.0800L229.8182,697.2800L231.2727,691.2000L232.7273,682.2400L234.1818,674.5600L235.6364,666.5600L237.0909,659.2000L238.5455,652.1600
            L240.0000,641.2800L241.4545,634.5600L242.9091,629.1200L244.3636,623.6800L245.8182,619.2000L247.2727,614.7200L248.7273,610.2400L250.1818,606.7200L251.6364,603.5200L253.0909,600.6400
            L254.5455,598.7200L256.0000,597.1200L257.4545,595.5200L258.9091,594.8800L260.3636,594.2400L261.8182,594.5600L263.2727,595.5200L264.7273,597.4400L266.1818,601.2800L267.6364,605.4400
            L269.0909,601.9200L270.5455,599.0400L272.0000,595.8400L273.4545,593.2800L274.9091,590.7200L276.3636,591.0080L277.8182,590.7200L279.2727,590.7200L280.7273,590.6880L282.1818,590.6880
            L283.6364,590.6880L285.0909,590.6880L286.5455,590.6560L288.0000,590.6560L289.4545,590.6560L290.9091,590.6240L292.3636,590.6240L293.8182,590.6240L295.2727,590.6240L296.7273,590.5920
            L298.1818,590.5920L299.6364,590.5600L301.0909,590.5600L302.5455,590.5600L304.0000,590.5600L305.4545,590.5600L306.9091,590.5600L308.3636,590.5600L309.8182,590.5600L311.2727,590.5600
            L312.7273,590.5600L314.1818,590.5600L315.6364,590.5600L317.0909,590.3680L318.5455,590.6240L320.0000,590.5920L321.4545,590.4960L322.9091,590.7200L324.3636,590.7520L325.8182,590.4000
            L327.2727,590.6240L328.7273,590.7520L330.1818,590.4640L331.6364,590.5600L333.0909,590.3360L334.5455,590.4640L336.0000,590.4000L337.4545,590.5600L338.9091,590.5280L340.3636,590.4320
            L341.8182,590.7520L343.2727,590.6880L344.7273,590.7200L346.1818,590.4320L347.6364,590.5600L349.0909,590.6240L350.5455,590.5600L352.0000,590.5920L353.4545,590.6240L354.9091,590.5920
            L356.3636,590.5600L357.8182,590.5600L359.2727,590.7840L360.7273,590.5280L362.1818,590.5920L363.6364,591.0080L365.0909,592.6400L366.5455,596.1600L368.0000,604.8000L369.4545,624.0000
            L370.9091,621.1200L372.3636,578.3360L373.8182,568.7040L375.2727,564.1920L376.7273,561.6448L378.1818,560.5056L379.6364,560.1216L381.0909,560.0230L382.5455,560.0035L384.0000,560.0004
            L385.4545,560.0000"/>
  </g>
  <g style="fill:none; stroke:#000000; stroke-width:  1.2000; stroke-linecap:butt; stroke-linejoin:miter; stroke-dasharray:none">
   <path d="M80.0000,560.0000L400.0000,560.0000"/>
   <path d="M94.5455,560.0000L94.5455,568.0000"/>
   <path d="M123.6364,560.0000L123.6364,568.0000"/>
   <path d="M152.7273,560.0000L152.7273,568.0000"/>
   <path d="M181.8182,560.0000L181.8182,568.0000"/>
   <path d="M210.9091,560.0000L210.9091,568.0000"/>
   <path d="M240.0000,560.0000L240.0000,568.0000"/>
   <path d="M269.0909,560.0000L269.0909,568.0000"/>
   <path d="M298.1818,560.0000L298.1818,568.0000"/>
   <path d="M327.2727,560.0000L327.2727,568.0000"/>
   <path d="M356.3636,560.0000L356.3636,568.0000"/>
   <path d="M385.4545,560.0000L385.4545,568.0000"/>
   <path d="M80.0000,560.0000L80.0000,576.0000"/>
   <path d="M109.0909,560.0000L109.0909,576.0000"/>
   <path d="M138.1818,560.0000L138.1818,576.0000"/>
   <path d="M167.2727,560.0000L167.2727,576.0000"/>
   <path d="M196.3636,560.0000L196.3636,576.0000"/>
   <path d="M225.4545,560.0000L225.4545,576.0000"/>
   <path d="M254.5455,560.0000L254.5455,576.0000"/>
   <path d="M283.6364,560.0000L283.6364,576.0000"/>
   <path d="M312.7273,560.0000L312.7273,576.0000"/>
   <path d="M341.8182,560.0000L341.8182,576.0000"/>
   <path d="M370.9091,560.0000L370.9091,576.0000"/>
   <path d="M400.0000,560.0000L400.0000,576.0000"/>
  </g>
  <g style="fill:#000000; fill-rule:nonzero">
   <text   style="font-family:'Times','Nimbus Roman No9 L'; font-style:normal; font-weight:normal; font-size:800.0000" transform="matrix(0.0140,0.0000,-0.0000,-0.0140,77.5000,545.0000)">0</text>
   <text   style="font-family:'Times','Nimbus Roman No9 L'; font-style:normal; font-weight:normal; font-size:800.0000" transform="matrix(0.0140,0.0000,-0.0000,-0.0140,102.5909,545.0000)">0.2</text>
   <text   style="font-family:'Times','Nimbus Roman No9 L'; font-style:normal; font-weight:normal; font-size:800.0000" transform="matrix(0.0140,0.0000,-0.0000,-0.0140,131.6818,545.0000)">0.4</text>
   <text   style="font-family:'Times','Nimbus Roman No9 L'; font-style:normal; font-weight:normal; font-size:800.0000" transform="matrix(0.0140,0.0000,-0.0000,-0.0140,160.7727,544.0000)">0.6</text>
   <text   style="font-family:'Times','Nimbus Roman No9 L'; font-style:normal; font-weight:normal; font-size:800.0000" transform="matrix(0.0140,0.0000,-0.0000,-0.0140,189.8636,545.0000)">0.8</text>
   <text   style="font-family:'Times','Nimbus Roman No9 L'; font-style:normal; font-weight:normal; font-size:800.0000" transform="matrix(0.0140,0.0000,-0.0000,-0.0140,223.4545,544.0000)">1</text>
   <text   style="font-family:'Times','Nimbus Roman No9 L'; font-style:normal; font-weight:normal; font-size:800.0000" transform="matrix(0.0140,0.0000,-0.0000,-0.0140,248.0455,544.0000)">1.2</text>
   <text   style="font-family:'Times','Nimbus Roman No9 L'; font-style:normal; font-weight:normal; font-size:800.0000" transform="matrix(0.0140,0.0000,-0.0000,-0.0140,277.1364,544.0000)">1.4</text>
   <text   style="font-family:'Times','Nimbus Roman No9 L'; font-style:normal; font-weight:normal; font-size:800.0000" transform="matrix(0.0140,0.0000,-0.0000,-0.0140,306.2273,544.0000)">1.6</text>
   <text   style="font-family:'Times','Nimbus Roman No9 L'; font-style:normal; font-weight:normal; font-size:800.0000" transform="matrix(0.0140,0.0000,-0.0000,-0.0140,335.3182,544.0000)">1.8</text>
   <text   style="font-family:'Times','Nimbus Roman No9 L'; font-style:normal; font-weight:normal; font-size:800.0000" transform="matrix(0.0140,0.0000,-0.0000,-0.0140,368.4091,545.0000)">2</text>
   <text   style="font-family:'Times','Nimbus Roman No9 L'; font-style:normal; font-weight:normal; font-size:800.0000" transform="matrix(0.0140,0.0000,-0.0000,-0.0140,393.5000,545.0000)">2.2</text>
   <text   style="font-family:'Times','Nimbus Roman No9 L'; font-style:italic; font-weight:bold; font-size:800.0000" transform="matrix(0.0280,0.0000,-0.0000,-0.0280,209.0000,526.0000)">x</text>
   <text   style="font-family:'Times','Nimbus Roman No9 L'; font-style:italic; font-weight:bold; font-size:800.0000" transform="matrix(0.0198,0.0000,-0.0000,-0.0198,220.0000,517.0400)">Bjorken</text>
  </g>
  <g style="fill:none; stroke:#000000; stroke-width:  1.2000; stroke-linecap:butt; stroke-linejoin:miter; stroke-dasharray:none">
   <path d="M80.0000,560.0000L80.0000,784.0000"/>
   <path d="M80.0000,568.0000L88.0000,568.0000"/>
   <path d="M80.0000,576.0000L88.0000,576.0000"/>
   <path d="M80.0000,584.0000L88.0000,584.0000"/>
   <path d="M80.0000,600.0000L88.0000,600.0000"/>
   <path d="M80.0000,608.0000L88.0000,608.0000"/>
   <path d="M80.0000,616.0000L88.0000,616.0000"/>
   <path d="M80.0000,632.0000L88.0000,632.0000"/>
   <path d="M80.0000,640.0000L88.0000,640.0000"/>
   <path d="M80.0000,648.0000L88.0000,648.0000"/>
   <path d="M80.0000,664.0000L88.0000,664.0000"/>
   <path d="M80.0000,672.0000L88.0000,672.0000"/>
   <path d="M80.0000,680.0000L88.0000,680.0000"/>
   <path d="M80.0000,696.0000L88.0000,696.0000"/>
   <path d="M80.0000,704.0000L88.0000,704.0000"/>
   <path d="M80.0000,712.0000L88.0000,712.0000"/>
   <path d="M80.0000,728.0000L88.0000,728.0000"/>
   <path d="M80.0000,736.0000L88.0000,736.0000"/>
   <path d="M80.0000,744.0000L88.0000,744.0000"/>
   <path d="M80.0000,760.0000L88.0000,760.0000"/>
   <path d="M80.0000,768.0000L88.0000,768.0000"/>
   <path d="M80.0000,776.0000L88.0000,776.0000"/>
   <path d="M80.0000,560.0000L96.0000,560.0000"/>
   <path d="M80.0000,592.0000L96.0000,592.0000"/>
   <path d="M80.0000,624.0000L96.0000,624.0000"/>
   <path d="M80.0000,656.0000L96.0000,656.0000"/>
   <path d="M80.0000,688.0000L96.0000,688.0000"/>
   <path d="M80.0000,720.0000L96.0000,720.0000"/>
   <path d="M80.0000,752.0000L96.0000,752.0000"/>
  </g>
  <g style="fill:#000000; fill-rule:nonzero">
   <text   style="font-family:'Times','Nimbus Roman No9 L'; font-style:normal; font-weight:normal; font-size:800.0000" transform="matrix(0.0140,0.0000,-0.0000,-0.0140,67.0000,556.5000)">0</text>
   <text   style="font-family:'Times','Nimbus Roman No9 L'; font-style:normal; font-weight:normal; font-size:800.0000" transform="matrix(0.0140,0.0000,-0.0000,-0.0140,60.0000,588.0000)">0.1</text>
   <text   style="font-family:'Times','Nimbus Roman No9 L'; font-style:normal; font-weight:normal; font-size:800.0000" transform="matrix(0.0140,0.0000,-0.0000,-0.0140,59.0000,620.5000)">0.2</text>
   <text   style="font-family:'Times','Nimbus Roman No9 L'; font-style:normal; font-weight:normal; font-size:800.0000" transform="matrix(0.0140,0.0000,-0.0000,-0.0140,59.0000,652.5000)">0.3</text>
   <text   style="font-family:'Times','Nimbus Roman No9 L'; font-style:normal; font-weight:normal; font-size:800.0000" transform="matrix(0.0140,0.0000,-0.0000,-0.0140,59.0000,684.5000)">0.4</text>
   <text   style="font-family:'Times','Nimbus Roman No9 L'; font-style:normal; font-weight:normal; font-size:800.0000" transform="matrix(0.0140,0.0000,-0.0000,-0.0140,59.0000,716.0000)">0.5</text>
   <text   style="font-family:'Times','Nimbus Roman No9 L'; font-style:normal; font-weight:normal; font-size:800.0000" transform="matrix(0.0140,0.0000,-0.0000,-0.0140,59.0000,748.0000)">0.6</text>
   <text   style="font-family:'Times','Nimbus Roman No9 L'; font-style:italic; font-weight:bold; font-size:800.0000" transform="matrix(0.0000,0.0280,0.0280,-0.0000,31.5200,662.0000)">f</text>
   <text   style="font-family:'Times','Nimbus Roman No9 L'; font-style:italic; font-weight:bold; font-size:800.0000" transform="matrix(0.0000,0.0198,0.0198,-0.0000,40.4800,669.0000)">dil</text>
  </g>
  <g style="fill:none; stroke:#000000; stroke-width:  1.2000; stroke-linecap:butt; stroke-linejoin:miter; stroke-dasharray:none">
   <path d="M80.0000,560.0000L400.0000,560.0000"/>
   <path d="M80.0000,560.0000L400.0000,560.0000"/>
   <path d="M80.0000,560.0000L80.0000,784.0000L400.0000,784.0000L400.0000,560.0000z"/>
  </g>
  <g style="fill:#000000; fill-rule:nonzero">
   <text   style="font-family:'Times','Nimbus Roman No9 L'; font-style:normal; font-weight:normal; font-size:800.0000" transform="matrix(0.0126,0.0000,-0.0000,-0.0126,292.6000,773.0000)">SHMS (Used)</text>
  </g>
  <g style="fill:none; stroke:#0000FF; stroke-width:  1.2000; stroke-linecap:butt; stroke-linejoin:miter; stroke-dasharray:none">
   <path d="M264.6000,775.5000L288.6000,775.5000"/>
  </g>
  <g style="fill:#000000; fill-rule:nonzero">
   <text   style="font-family:'Times','Nimbus Roman No9 L'; font-style:normal; font-weight:normal; font-size:800.0000" transform="matrix(0.0126,0.0000,-0.0000,-0.0126,292.6000,756.0000)">HMS</text>
  </g>
  <g style="fill:none; stroke:#FF0000; stroke-width:  1.2000; stroke-linecap:butt; stroke-linejoin:miter; stroke-dasharray:none">
   <path d="M264.6000,759.5000L288.6000,759.5000"/>
  </g>
  <g style="fill:none; stroke:#FF0000; stroke-width:  2.4000; stroke-linecap:butt; stroke-linejoin:miter; stroke-dasharray:none">
   <path d="M567.3058,748.5313L570.8801,749.2833L574.5868,749.6593L578.8230,749.9100L580.6764,749.6593L581.7354,749.4086L589.0164,744.8967L592.4584,743.5181L594.8412,742.8914L596.2974,742.6408
            L599.2098,742.6408L601.3280,742.8914L603.0489,743.5181L603.5784,743.7687L604.9023,744.7714L606.6232,746.5260L609.8004,749.9100L610.8594,750.9126L613.5071,752.7926L615.7576,754.1712
            L618.1405,755.1739L620.6557,755.8005L623.0386,756.0512L625.4215,755.9258L627.9367,755.5498L630.0548,754.7979L632.1729,753.7952L632.7024,753.4192L635.0853,751.6646L637.0711,750.0353
            L639.0568,747.9046L639.9834,746.7767L641.9692,744.0194L643.9549,741.0114L646.0730,737.5022L647.2645,735.2462L649.1178,731.2356L651.3683,726.3477L653.8835,720.3318L654.5455,718.7025
            L656.6636,713.1879L659.4436,705.0414L661.8265,698.3989L669.1075,676.3406L674.4027,660.1729L676.2561,655.0343L679.1685,647.8905L680.7571,643.8799L682.3456,640.4959L683.5371,638.1146
            L685.5228,634.8560L687.2438,632.0988L688.7000,630.2188L690.0238,628.8402L690.8181,628.0882L692.4067,627.2108L693.9952,626.5842L695.4514,626.4589L696.7753,626.5842L698.0991,627.0855
            L699.5553,627.9628L701.0115,629.3415L702.6001,631.2214L704.3210,633.7281L705.3801,635.3574L706.9687,638.1146L708.5572,641.4986L710.5430,646.0105L712.6611,651.3997L714.3820,656.0370
            L716.5002,662.0529L719.9421,672.7060L722.8545,681.9805L726.0316,692.6337L727.2231,696.6442L734.1069,721.2091L734.5041,722.5878L738.7403,737.5022L741.7851,747.5287"/>
  </g>
  <g style="fill:none; stroke:#0000FF; stroke-width:  2.4000; stroke-linecap:butt; stroke-linejoin:miter; stroke-dasharray:none">
   <path d="M567.3058,749.0326L571.6744,749.4086L574.5868,749.5340L578.8230,749.5340L580.6764,749.4086L581.7354,749.0326L583.4564,748.2807L589.0164,744.3954L591.7965,743.2674L594.3117,742.5154
            L596.2974,742.1394L600.1365,741.6381L601.8575,741.8888L603.1813,742.2648L603.5784,742.5154L604.7699,743.3927L606.2261,744.8967L609.8004,749.0326L610.8594,750.0353L614.3014,752.9179
            L616.2871,754.2965L618.1405,755.1739L620.2586,755.9258L622.6414,756.4272L625.4215,756.5525L627.9367,756.3019L630.3196,755.9259L632.7024,755.0485L635.2177,753.7952L637.3358,752.4166
            L639.5863,750.7873L639.9834,750.4113L642.3663,748.0300L644.4844,745.6487L646.7349,742.8914L649.3826,739.1315L651.7654,735.1209L654.5455,730.1077L656.7959,725.7211L660.2379,718.4519
            L661.8265,715.1933L664.8712,708.3001L669.1075,698.6496L676.2561,681.7299L680.4923,672.4554L682.8752,667.6928L683.5371,666.1888L686.0523,661.5516L688.0381,658.0423L690.0238,654.7837
            L690.8181,653.6557L693.2010,650.3971L695.1867,648.1412L697.0400,646.2612L698.0991,645.2585L700.0848,643.7546L702.0705,642.7519L703.9239,641.9999L705.3801,641.6239L707.3658,641.4986
            L709.3515,641.7493L711.3373,642.3759L712.6611,643.0026L714.6468,644.1306L716.7649,645.7599L719.9421,648.7678L722.0602,651.1491L724.4431,654.2824L727.2231,658.2930L730.0031,662.5542
            L733.1803,668.0688L734.5041,670.4501L737.5489,676.0900L740.5936,682.2312L741.7851,684.6125"/>
  </g>
  <g style="fill:none; stroke:#000000; stroke-width:  1.8000; stroke-linecap:butt; stroke-linejoin:miter; stroke-dasharray: 2 5 9 5">
   <path d="M480.0000,743.1529L487.2727,743.1529L488.7273,742.7576L510.5455,744.4706L546.1818,746.4471L567.2727,747.1059L568.7273,770.5600L570.1818,763.5765L571.6364,757.6471L573.0909,752.8640
            L574.5455,748.9374L576.0000,745.8541L577.4545,743.5245L578.9091,741.8880L580.3636,740.8471L581.8182,740.3464L583.2727,740.3200L584.7273,740.6889L586.1818,741.4136L587.6364,742.4019
            L589.0909,743.6312L590.5455,745.0293L592.0000,746.5525L593.4545,748.1468L594.9091,749.7807L596.3636,751.4014L597.8182,752.9826L599.2727,754.4715L600.7273,755.8682L602.1818,757.1068
            L603.6364,758.1741L605.0909,759.0965L606.5455,759.7553L608.0000,760.1506L609.4545,760.4141L610.9091,760.2824L612.3636,759.8871L613.8182,759.3600L615.2727,758.4376L616.7273,757.2386
            L618.1818,755.7628L619.6364,753.9972L621.0909,751.9416L622.5455,749.6094L624.0000,747.0136L625.4545,741.9275L626.9091,742.1647L628.3636,739.8456L629.8182,737.5398L631.2727,735.2339
            L632.7273,732.9148L634.1818,730.6353L635.6364,728.2635L637.0909,726.0235L638.5455,723.6518L640.0000,721.4118L641.4545,719.0400L642.9091,716.8000L644.3636,714.4282L645.8182,712.0565
            L647.2727,709.8165L648.7273,707.4447L650.1818,705.2047L651.6364,702.8329L653.0909,700.5929L654.5455,698.2212L656.0000,695.9812L657.4545,693.6094L658.9091,691.3694L660.3636,688.9976
            L661.8182,686.7576L663.2727,684.3859L664.7273,682.1459L666.1818,679.7741L667.6364,677.4024L669.0909,675.1624L670.5455,672.7906L672.0000,670.5506L673.4545,668.1788L674.9091,665.9388
            L676.3636,663.5671L677.8182,661.3271L679.2727,658.9553L680.7273,656.7153L682.1818,654.3435L683.6364,652.1035L685.0909,649.7318L686.5455,647.3600L688.0000,645.1200L689.4545,642.7482
            L690.9091,640.5082L692.3636,638.1365L693.8182,635.8965L695.2727,633.5247L696.7273,631.2847L698.1818,628.9129L699.6364,626.6729L701.0909,624.3012L702.5455,622.0612L704.0000,619.6894
            L705.4545,617.4494L706.9091,615.0776L708.3636,612.7059L709.8182,612.7059L711.2727,612.7059L712.7273,612.7059L714.1818,612.7059L715.6364,612.7059L717.0909,612.7059L718.5455,612.7059
            L720.0000,612.7059L721.4545,612.7059L722.9091,612.7059L724.3636,612.7059L725.8182,612.7059L727.2727,612.7059L728.7273,612.7059L730.1818,612.7059L731.6364,612.7059L733.0909,612.7059
            L734.5455,612.7059L736.0000,612.7059L737.4545,612.7059L738.9091,612.7059L740.3636,612.7059L741.8182,612.7059L743.2727,612.7059L744.7273,612.7059L746.1818,612.7059L747.6364,612.7059
            L749.0909,612.7059L750.5455,612.7059L752.0000,612.7059L753.4545,612.7059L754.9091,612.7059L756.3636,612.7059L757.8182,612.7059L759.2727,612.7059L760.7273,612.7059L762.1818,612.7059
            L763.6364,612.7059L765.0909,612.7059L766.5455,612.7059L768.0000,612.7059L769.4545,612.7059L770.9091,612.7059L772.3636,612.7059L773.8182,612.7059L775.2727,612.7059L776.7273,612.7059
            L778.1818,612.7059L779.6364,612.7059L781.0909,612.7059L782.5455,612.7059L784.0000,612.7059L785.4545,612.7059L786.9091,612.7059L788.3636,612.7059L789.8182,612.7059L791.2727,612.7059
            L792.7273,612.7059L794.1818,612.7059L795.6364,612.7059L797.0909,612.7059L798.5455,612.7059L800.0000,612.7059L800.0800,612.7059"/>
  </g>
  <g style="fill:none; stroke:#FF00FF; stroke-width:  2.4000; stroke-linecap:butt; stroke-linejoin:miter; stroke-dasharray:none">
   <path d="M552.7273,744.4706L552.7273,745.2585"/>
   <path d="M549.0473,745.2585L556.4073,745.2585"/>
   <path d="M552.7273,744.4706L552.7273,743.6826"/>
   <path d="M556.4073,743.6826L549.0473,743.6826"/>
   <path d="M567.2727,744.4706L567.2727,744.8843"/>
   <path d="M563.5927,744.8843L570.9527,744.8843"/>
   <path d="M567.2727,744.4706L567.2727,744.0568"/>
   <path d="M570.9527,744.0568L563.5927,744.0568"/>
   <path d="M581.8182,744.4706L581.8182,744.8422"/>
   <path d="M578.1382,744.8422L585.4982,744.8422"/>
   <path d="M581.8182,744.4706L581.8182,744.0990"/>
   <path d="M585.4982,744.0990L578.1382,744.0990"/>
   <path d="M596.3636,744.4706L596.3636,745.1979"/>
   <path d="M592.6836,745.1979L600.0436,745.1979"/>
   <path d="M596.3636,744.4706L596.3636,743.7432"/>
   <path d="M600.0436,743.7432L592.6836,743.7432"/>
   <path d="M610.9091,744.4706L610.9091,744.9937"/>
   <path d="M607.2291,744.9937L614.5891,744.9937"/>
   <path d="M610.9091,744.4706L610.9091,743.9475"/>
   <path d="M614.5891,743.9475L607.2291,743.9475"/>
   <path d="M625.4545,744.4706L625.4545,744.7592"/>
   <path d="M621.7745,744.7592L629.1345,744.7592"/>
   <path d="M625.4545,744.4706L625.4545,744.1820"/>
   <path d="M629.1345,744.1820L621.7745,744.1820"/>
   <path d="M640.0000,744.4706L640.0000,745.0569"/>
   <path d="M636.3200,745.0569L643.6800,745.0569"/>
   <path d="M640.0000,744.4706L640.0000,743.8842"/>
   <path d="M643.6800,743.8842L636.3200,743.8842"/>
   <path d="M654.5455,744.4706L654.5455,746.0254"/>
   <path d="M650.8655,746.0254L658.2255,746.0254"/>
   <path d="M654.5455,744.4706L654.5455,742.9158"/>
   <path d="M658.2255,742.9158L650.8655,742.9158"/>
   <path d="M669.0909,744.4706L669.0909,747.6988"/>
   <path d="M665.4109,747.6988L672.7709,747.6988"/>
   <path d="M669.0909,744.4706L669.0909,741.2424"/>
   <path d="M672.7709,741.2424L665.4109,741.2424"/>
   <path d="M683.6364,744.4706L683.6364,749.4908"/>
   <path d="M679.9564,749.4908L687.3164,749.4908"/>
   <path d="M683.6364,744.4706L683.6364,739.4504"/>
   <path d="M687.3164,739.4504L679.9564,739.4504"/>
   <path d="M698.1818,744.4706L698.1818,752.6136"/>
   <path d="M694.5018,752.6136L701.8618,752.6136"/>
   <path d="M698.1818,744.4706L698.1818,736.3275"/>
   <path d="M701.8618,736.3275L694.5018,736.3275"/>
   <path d="M712.7273,744.4706L712.7273,755.6179"/>
   <path d="M709.0473,755.6179L716.4073,755.6179"/>
   <path d="M712.7273,744.4706L712.7273,733.3233"/>
   <path d="M716.4073,733.3233L709.0473,733.3233"/>
   <path d="M727.2727,744.4706L727.2727,759.6235"/>
   <path d="M723.5927,759.6235L730.9527,759.6235"/>
   <path d="M727.2727,744.4706L727.2727,729.3176"/>
   <path d="M730.9527,729.3176L723.5927,729.3176"/>
   <path d="M741.8182,744.4706L741.8182,763.8400"/>
   <path d="M738.1382,763.8400L745.4982,763.8400"/>
   <path d="M741.8182,744.4706L741.8182,725.1012"/>
   <path d="M745.4982,725.1012L738.1382,725.1012"/>
  </g>
  <g style="fill:#FF00FF; fill-rule:nonzero">
   <path  d="M552.7273,748.4706L548.7273,744.4706L552.7273,740.4706L556.7273,744.4706z"/>
  </g>
  <g style="fill:none; stroke:#FF00FF; stroke-width:  1.2000; stroke-linecap:butt; stroke-linejoin:miter; stroke-dasharray:none">
   <path d="M552.7273,748.4706L548.7273,744.4706L552.7273,740.4706L556.7273,744.4706z"/>
  </g>
  <g style="fill:#FF00FF; fill-rule:nonzero">
   <path  d="M567.2727,748.4706L563.2727,744.4706L567.2727,740.4706L571.2727,744.4706z"/>
  </g>
  <g style="fill:none; stroke:#FF00FF; stroke-width:  1.2000; stroke-linecap:butt; stroke-linejoin:miter; stroke-dasharray:none">
   <path d="M567.2727,748.4706L563.2727,744.4706L567.2727,740.4706L571.2727,744.4706z"/>
  </g>
  <g style="fill:#FF00FF; fill-rule:nonzero">
   <path  d="M581.8182,748.4706L577.8182,744.4706L581.8182,740.4706L585.8182,744.4706z"/>
  </g>
  <g style="fill:none; stroke:#FF00FF; stroke-width:  1.2000; stroke-linecap:butt; stroke-linejoin:miter; stroke-dasharray:none">
   <path d="M581.8182,748.4706L577.8182,744.4706L581.8182,740.4706L585.8182,744.4706z"/>
  </g>
  <g style="fill:#FF00FF; fill-rule:nonzero">
   <path  d="M596.3636,748.4706L592.3636,744.4706L596.3636,740.4706L600.3636,744.4706z"/>
  </g>
  <g style="fill:none; stroke:#FF00FF; stroke-width:  1.2000; stroke-linecap:butt; stroke-linejoin:miter; stroke-dasharray:none">
   <path d="M596.3636,748.4706L592.3636,744.4706L596.3636,740.4706L600.3636,744.4706z"/>
  </g>
  <g style="fill:#FF00FF; fill-rule:nonzero">
   <path  d="M610.9091,748.4706L606.9091,744.4706L610.9091,740.4706L614.9091,744.4706z"/>
  </g>
  <g style="fill:none; stroke:#FF00FF; stroke-width:  1.2000; stroke-linecap:butt; stroke-linejoin:miter; stroke-dasharray:none">
   <path d="M610.9091,748.4706L606.9091,744.4706L610.9091,740.4706L614.9091,744.4706z"/>
  </g>
  <g style="fill:#FF00FF; fill-rule:nonzero">
   <path  d="M625.4545,748.4706L621.4545,744.4706L625.4545,740.4706L629.4545,744.4706z"/>
  </g>
  <g style="fill:none; stroke:#FF00FF; stroke-width:  1.2000; stroke-linecap:butt; stroke-linejoin:miter; stroke-dasharray:none">
   <path d="M625.4545,748.4706L621.4545,744.4706L625.4545,740.4706L629.4545,744.4706z"/>
  </g>
  <g style="fill:#FF00FF; fill-rule:nonzero">
   <path  d="M640.0000,748.4706L636.0000,744.4706L640.0000,740.4706L644.0000,744.4706z"/>
  </g>
  <g style="fill:none; stroke:#FF00FF; stroke-width:  1.2000; stroke-linecap:butt; stroke-linejoin:miter; stroke-dasharray:none">
   <path d="M640.0000,748.4706L636.0000,744.4706L640.0000,740.4706L644.0000,744.4706z"/>
  </g>
  <g style="fill:#FF00FF; fill-rule:nonzero">
   <path  d="M654.5455,748.4706L650.5455,744.4706L654.5455,740.4706L658.5455,744.4706z"/>
  </g>
  <g style="fill:none; stroke:#FF00FF; stroke-width:  1.2000; stroke-linecap:butt; stroke-linejoin:miter; stroke-dasharray:none">
   <path d="M654.5455,748.4706L650.5455,744.4706L654.5455,740.4706L658.5455,744.4706z"/>
  </g>
  <g style="fill:#FF00FF; fill-rule:nonzero">
   <path  d="M669.0909,748.4706L665.0909,744.4706L669.0909,740.4706L673.0909,744.4706z"/>
  </g>
  <g style="fill:none; stroke:#FF00FF; stroke-width:  1.2000; stroke-linecap:butt; stroke-linejoin:miter; stroke-dasharray:none">
   <path d="M669.0909,748.4706L665.0909,744.4706L669.0909,740.4706L673.0909,744.4706z"/>
  </g>
  <g style="fill:#FF00FF; fill-rule:nonzero">
   <path  d="M683.6364,748.4706L679.6364,744.4706L683.6364,740.4706L687.6364,744.4706z"/>
  </g>
  <g style="fill:none; stroke:#FF00FF; stroke-width:  1.2000; stroke-linecap:butt; stroke-linejoin:miter; stroke-dasharray:none">
   <path d="M683.6364,748.4706L679.6364,744.4706L683.6364,740.4706L687.6364,744.4706z"/>
  </g>
  <g style="fill:#FF00FF; fill-rule:nonzero">
   <path  d="M698.1818,748.4706L694.1818,744.4706L698.1818,740.4706L702.1818,744.4706z"/>
  </g>
  <g style="fill:none; stroke:#FF00FF; stroke-width:  1.2000; stroke-linecap:butt; stroke-linejoin:miter; stroke-dasharray:none">
   <path d="M698.1818,748.4706L694.1818,744.4706L698.1818,740.4706L702.1818,744.4706z"/>
  </g>
  <g style="fill:#FF00FF; fill-rule:nonzero">
   <path  d="M712.7273,748.4706L708.7273,744.4706L712.7273,740.4706L716.7273,744.4706z"/>
  </g>
  <g style="fill:none; stroke:#FF00FF; stroke-width:  1.2000; stroke-linecap:butt; stroke-linejoin:miter; stroke-dasharray:none">
   <path d="M712.7273,748.4706L708.7273,744.4706L712.7273,740.4706L716.7273,744.4706z"/>
  </g>
  <g style="fill:#FF00FF; fill-rule:nonzero">
   <path  d="M727.2727,748.4706L723.2727,744.4706L727.2727,740.4706L731.2727,744.4706z"/>
  </g>
  <g style="fill:none; stroke:#FF00FF; stroke-width:  1.2000; stroke-linecap:butt; stroke-linejoin:miter; stroke-dasharray:none">
   <path d="M727.2727,748.4706L723.2727,744.4706L727.2727,740.4706L731.2727,744.4706z"/>
  </g>
  <g style="fill:#FF00FF; fill-rule:nonzero">
   <path  d="M741.8182,748.4706L737.8182,744.4706L741.8182,740.4706L745.8182,744.4706z"/>
  </g>
  <g style="fill:none; stroke:#FF00FF; stroke-width:  1.2000; stroke-linecap:butt; stroke-linejoin:miter; stroke-dasharray:none">
   <path d="M741.8182,748.4706L737.8182,744.4706L741.8182,740.4706L745.8182,744.4706z"/>
  </g>
  <g style="fill:#FF00FF; fill-rule:nonzero">
   <path  d="M545.4545,566.5882L545.4545,569.1972L560.0000,569.1972L560.0000,566.5882L560.0000,566.5882L560.0000,566.5882L574.5455,566.5882L574.5455,566.5882L574.5455,566.5882L574.5455,566.5882
             L589.0909,566.5882L589.0909,566.5882L589.0909,566.5882L589.0909,568.4856L603.6364,568.4856L603.6364,566.5882L603.6364,566.5882L603.6364,567.1272L618.1818,567.1272L618.1818,566.5882
             L618.1818,566.5882L618.1818,566.5909L632.7273,566.5909L632.7273,566.5882L632.7273,566.5882L632.7273,566.7793L647.2727,566.7793L647.2727,566.5882L647.2727,566.5882L647.2727,568.7887
             L661.8182,568.7887L661.8182,566.5882L661.8182,566.5882L661.8182,572.4386L676.3636,572.4386L676.3636,566.5882L676.3636,566.5882L676.3636,576.1148L690.9091,576.1148L690.9091,566.5882
             L690.9091,566.5882L690.9091,578.4207L705.4545,578.4207L705.4545,566.5882L705.4545,566.5882L705.4545,578.5261L720.0000,578.5261L720.0000,566.5882L720.0000,566.5882L720.0000,576.5760
             L734.5455,576.5760L734.5455,566.5882L734.5455,566.5882L734.5455,573.2819L749.0909,573.2819L749.0909,566.5882z"/>
  </g>
  <defs>
   <pattern id="pattern2" viewBox="0 0 16 16" width="16" height="16" patternUnits="userSpaceOnUse">
     <rect fill="#FFFFFF" x="0" y="0" width="16" height="16"/>
     <rect x="1" y="15" width="1" height="1"/>
     <rect x="2" y="15" width="1" height="1"/>
     <rect x="3" y="15" width="1" height="1"/>
     <rect x="5" y="15" width="1" height="1"/>
     <rect x="6" y="15" width="1" height="1"/>
     <rect x="7" y="15" width="1" height="1"/>
     <rect x="9" y="15" width="1" height="1"/>
     <rect x="10" y="15" width="1" height="1"/>
     <rect x="11" y="15" width="1" height="1"/>
     <rect x="13" y="15" width="1" height="1"/>
     <rect x="14" y="15" width="1" height="1"/>
     <rect x="15" y="15" width="1" height="1"/>
     <rect x="0" y="14" width="1" height="1"/>
     <rect x="1" y="14" width="1" height="1"/>
     <rect x="2" y="14" width="1" height="1"/>
     <rect x="3" y="14" width="1" height="1"/>
     <rect x="4" y="14" width="1" height="1"/>
     <rect x="5" y="14" width="1" height="1"/>
     <rect x="6" y="14" width="1" height="1"/>
     <rect x="7" y="14" width="1" height="1"/>
     <rect x="8" y="14" width="1" height="1"/>
     <rect x="9" y="14" width="1" height="1"/>
     <rect x="10" y="14" width="1" height="1"/>
     <rect x="11" y="14" width="1" height="1"/>
     <rect x="12" y="14" width="1" height="1"/>
     <rect x="13" y="14" width="1" height="1"/>
     <rect x="14" y="14" width="1" height="1"/>
     <rect x="15" y="14" width="1" height="1"/>
     <rect x="0" y="13" width="1" height="1"/>
     <rect x="1" y="13" width="1" height="1"/>
     <rect x="3" y="13" width="1" height="1"/>
     <rect x="4" y="13" width="1" height="1"/>
     <rect x="5" y="13" width="1" height="1"/>
     <rect x="7" y="13" width="1" height="1"/>
     <rect x="8" y="13" width="1" height="1"/>
     <rect x="9" y="13" width="1" height="1"/>
     <rect x="11" y="13" width="1" height="1"/>
     <rect x="12" y="13" width="1" height="1"/>
     <rect x="13" y="13" width="1" height="1"/>
     <rect x="15" y="13" width="1" height="1"/>
     <rect x="0" y="12" width="1" height="1"/>
     <rect x="1" y="12" width="1" height="1"/>
     <rect x="2" y="12" width="1" height="1"/>
     <rect x="3" y="12" width="1" height="1"/>
     <rect x="4" y="12" width="1" height="1"/>
     <rect x="5" y="12" width="1" height="1"/>
     <rect x="6" y="12" width="1" height="1"/>
     <rect x="7" y="12" width="1" height="1"/>
     <rect x="8" y="12" width="1" height="1"/>
     <rect x="9" y="12" width="1" height="1"/>
     <rect x="10" y="12" width="1" height="1"/>
     <rect x="11" y="12" width="1" height="1"/>
     <rect x="12" y="12" width="1" height="1"/>
     <rect x="13" y="12" width="1" height="1"/>
     <rect x="14" y="12" width="1" height="1"/>
     <rect x="15" y="12" width="1" height="1"/>
     <rect x="1" y="11" width="1" height="1"/>
     <rect x="2" y="11" width="1" height="1"/>
     <rect x="3" y="11" width="1" height="1"/>
     <rect x="5" y="11" width="1" height="1"/>
     <rect x="6" y="11" width="1" height="1"/>
     <rect x="7" y="11" width="1" height="1"/>
     <rect x="9" y="11" width="1" height="1"/>
     <rect x="10" y="11" width="1" height="1"/>
     <rect x="11" y="11" width="1" height="1"/>
     <rect x="13" y="11" width="1" height="1"/>
     <rect x="14" y="11" width="1" height="1"/>
     <rect x="15" y="11" width="1" height="1"/>
     <rect x="0" y="10" width="1" height="1"/>
     <rect x="1" y="10" width="1" height="1"/>
     <rect x="2" y="10" width="1" height="1"/>
     <rect x="3" y="10" width="1" height="1"/>
     <rect x="4" y="10" width="1" height="1"/>
     <rect x="5" y="10" width="1" height="1"/>
     <rect x="6" y="10" width="1" height="1"/>
     <rect x="7" y="10" width="1" height="1"/>
     <rect x="8" y="10" width="1" height="1"/>
     <rect x="9" y="10" width="1" height="1"/>
     <rect x="10" y="10" width="1" height="1"/>
     <rect x="11" y="10" width="1" height="1"/>
     <rect x="12" y="10" width="1" height="1"/>
     <rect x="13" y="10" width="1" height="1"/>
     <rect x="14" y="10" width="1" height="1"/>
     <rect x="15" y="10" width="1" height="1"/>
     <rect x="0" y="9" width="1" height="1"/>
     <rect x="1" y="9" width="1" height="1"/>
     <rect x="3" y="9" width="1" height="1"/>
     <rect x="4" y="9" width="1" height="1"/>
     <rect x="5" y="9" width="1" height="1"/>
     <rect x="7" y="9" width="1" height="1"/>
     <rect x="8" y="9" width="1" height="1"/>
     <rect x="9" y="9" width="1" height="1"/>
     <rect x="11" y="9" width="1" height="1"/>
     <rect x="12" y="9" width="1" height="1"/>
     <rect x="13" y="9" width="1" height="1"/>
     <rect x="15" y="9" width="1" height="1"/>
     <rect x="0" y="8" width="1" height="1"/>
     <rect x="1" y="8" width="1" height="1"/>
     <rect x="2" y="8" width="1" height="1"/>
     <rect x="3" y="8" width="1" height="1"/>
     <rect x="4" y="8" width="1" height="1"/>
     <rect x="5" y="8" width="1" height="1"/>
     <rect x="6" y="8" width="1" height="1"/>
     <rect x="7" y="8" width="1" height="1"/>
     <rect x="8" y="8" width="1" height="1"/>
     <rect x="9" y="8" width="1" height="1"/>
     <rect x="10" y="8" width="1" height="1"/>
     <rect x="11" y="8" width="1" height="1"/>
     <rect x="12" y="8" width="1" height="1"/>
     <rect x="13" y="8" width="1" height="1"/>
     <rect x="14" y="8" width="1" height="1"/>
     <rect x="15" y="8" width="1" height="1"/>
     <rect x="1" y="7" width="1" height="1"/>
     <rect x="2" y="7" width="1" height="1"/>
     <rect x="3" y="7" width="1" height="1"/>
     <rect x="5" y="7" width="1" height="1"/>
     <rect x="6" y="7" width="1" height="1"/>
     <rect x="7" y="7" width="1" height="1"/>
     <rect x="9" y="7" width="1" height="1"/>
     <rect x="10" y="7" width="1" height="1"/>
     <rect x="11" y="7" width="1" height="1"/>
     <rect x="13" y="7" width="1" height="1"/>
     <rect x="14" y="7" width="1" height="1"/>
     <rect x="15" y="7" width="1" height="1"/>
     <rect x="0" y="6" width="1" height="1"/>
     <rect x="1" y="6" width="1" height="1"/>
     <rect x="2" y="6" width="1" height="1"/>
     <rect x="3" y="6" width="1" height="1"/>
     <rect x="4" y="6" width="1" height="1"/>
     <rect x="5" y="6" width="1" height="1"/>
     <rect x="6" y="6" width="1" height="1"/>
     <rect x="7" y="6" width="1" height="1"/>
     <rect x="8" y="6" width="1" height="1"/>
     <rect x="9" y="6" width="1" height="1"/>
     <rect x="10" y="6" width="1" height="1"/>
     <rect x="11" y="6" width="1" height="1"/>
     <rect x="12" y="6" width="1" height="1"/>
     <rect x="13" y="6" width="1" height="1"/>
     <rect x="14" y="6" width="1" height="1"/>
     <rect x="15" y="6" width="1" height="1"/>
     <rect x="0" y="5" width="1" height="1"/>
     <rect x="1" y="5" width="1" height="1"/>
     <rect x="3" y="5" width="1" height="1"/>
     <rect x="4" y="5" width="1" height="1"/>
     <rect x="5" y="5" width="1" height="1"/>
     <rect x="7" y="5" width="1" height="1"/>
     <rect x="8" y="5" width="1" height="1"/>
     <rect x="9" y="5" width="1" height="1"/>
     <rect x="11" y="5" width="1" height="1"/>
     <rect x="12" y="5" width="1" height="1"/>
     <rect x="13" y="5" width="1" height="1"/>
     <rect x="15" y="5" width="1" height="1"/>
     <rect x="0" y="4" width="1" height="1"/>
     <rect x="1" y="4" width="1" height="1"/>
     <rect x="2" y="4" width="1" height="1"/>
     <rect x="3" y="4" width="1" height="1"/>
     <rect x="4" y="4" width="1" height="1"/>
     <rect x="5" y="4" width="1" height="1"/>
     <rect x="6" y="4" width="1" height="1"/>
     <rect x="7" y="4" width="1" height="1"/>
     <rect x="8" y="4" width="1" height="1"/>
     <rect x="9" y="4" width="1" height="1"/>
     <rect x="10" y="4" width="1" height="1"/>
     <rect x="11" y="4" width="1" height="1"/>
     <rect x="12" y="4" width="1" height="1"/>
     <rect x="13" y="4" width="1" height="1"/>
     <rect x="14" y="4" width="1" height="1"/>
     <rect x="15" y="4" width="1" height="1"/>
     <rect x="1" y="3" width="1" height="1"/>
     <rect x="2" y="3" width="1" height="1"/>
     <rect x="3" y="3" width="1" height="1"/>
     <rect x="5" y="3" width="1" height="1"/>
     <rect x="6" y="3" width="1" height="1"/>
     <rect x="7" y="3" width="1" height="1"/>
     <rect x="9" y="3" width="1" height="1"/>
     <rect x="10" y="3" width="1" height="1"/>
     <rect x="11" y="3" width="1" height="1"/>
     <rect x="13" y="3" width="1" height="1"/>
     <rect x="14" y="3" width="1" height="1"/>
     <rect x="15" y="3" width="1" height="1"/>
     <rect x="0" y="2" width="1" height="1"/>
     <rect x="1" y="2" width="1" height="1"/>
     <rect x="2" y="2" width="1" height="1"/>
     <rect x="3" y="2" width="1" height="1"/>
     <rect x="4" y="2" width="1" height="1"/>
     <rect x="5" y="2" width="1" height="1"/>
     <rect x="6" y="2" width="1" height="1"/>
     <rect x="7" y="2" width="1" height="1"/>
     <rect x="8" y="2" width="1" height="1"/>
     <rect x="9" y="2" width="1" height="1"/>
     <rect x="10" y="2" width="1" height="1"/>
     <rect x="11" y="2" width="1" height="1"/>
     <rect x="12" y="2" width="1" height="1"/>
     <rect x="13" y="2" width="1" height="1"/>
     <rect x="14" y="2" width="1" height="1"/>
     <rect x="15" y="2" width="1" height="1"/>
     <rect x="0" y="1" width="1" height="1"/>
     <rect x="1" y="1" width="1" height="1"/>
     <rect x="3" y="1" width="1" height="1"/>
     <rect x="4" y="1" width="1" height="1"/>
     <rect x="5" y="1" width="1" height="1"/>
     <rect x="7" y="1" width="1" height="1"/>
     <rect x="8" y="1" width="1" height="1"/>
     <rect x="9" y="1" width="1" height="1"/>
     <rect x="11" y="1" width="1" height="1"/>
     <rect x="12" y="1" width="1" height="1"/>
     <rect x="13" y="1" width="1" height="1"/>
     <rect x="15" y="1" width="1" height="1"/>
     <rect x="0" y="0" width="1" height="1"/>
     <rect x="1" y="0" width="1" height="1"/>
     <rect x="2" y="0" width="1" height="1"/>
     <rect x="3" y="0" width="1" height="1"/>
     <rect x="4" y="0" width="1" height="1"/>
     <rect x="5" y="0" width="1" height="1"/>
     <rect x="6" y="0" width="1" height="1"/>
     <rect x="7" y="0" width="1" height="1"/>
     <rect x="8" y="0" width="1" height="1"/>
     <rect x="9" y="0" width="1" height="1"/>
     <rect x="10" y="0" width="1" height="1"/>
     <rect x="11" y="0" width="1" height="1"/>
     <rect x="12" y="0" width="1" height="1"/>
     <rect x="13" y="0" width="1" height="1"/>
     <rect x="14" y="0" width="1" height="1"/>
     <rect x="15" y="0" width="1" height="1"/>
   </pattern>
   <filter id="tocolor2" filterUnits="objectBoundingBox"
    color-interpolation-filters="sRGB" x="0%" y="0%" width="100%" height="100%">
    <feComponentTransfer>
      <feFuncR type="discrete" tableValues="1.000000 1.000000"/>
      <feFuncG type="discrete" tableValues="0.000000 1.000000"/>
      <feFuncB type="discrete" tableValues="0.000000 1.000000"/>
    </feComponentTransfer>
   </filter>
  </defs>
  <g style="fill:none; stroke:#FF0000; stroke-width:  2.4000; stroke-linecap:butt; stroke-linejoin:miter; stroke-dasharray: 17 7">
   <path d="M567.3058,748.4060L571.2773,749.1580L574.5868,749.5340L578.9554,749.7846L581.0735,749.5340L581.7354,749.2833L589.0164,744.6461L592.7231,743.1421L595.3708,742.5154L596.2974,742.3901
            L599.4746,742.3901L601.4603,742.6407L603.3137,743.3927L603.5784,743.5181L605.0347,744.6461L607.5499,747.2780L609.9328,750.0353L610.8594,750.7873L613.6395,752.7926L616.1547,754.2965
            L618.1405,755.1739L620.7881,755.9258L623.4357,756.1765L625.4215,756.0512L628.0691,755.5498L630.3196,754.6725L632.7024,753.4192L635.2177,751.5392L637.3358,749.6593L639.5863,747.1527
            L639.9834,746.6513L642.3663,743.2674L644.6168,739.7581L646.8673,735.6222L647.2645,734.8702L649.3826,730.4836L651.7654,724.9691L654.5455,718.3265L656.7959,712.0600L660.3703,702.0335
            L661.8265,697.6469L664.3417,689.8764L669.1075,674.8366L676.2561,651.5251L680.6247,638.6160L682.8752,632.0988L683.5371,630.2188L686.0523,623.8269L688.0381,619.0643L689.8914,614.8031
            L690.8181,612.9231L693.2010,608.6619L695.0543,605.6539L696.7753,603.2726L698.0991,601.7686L699.9524,600.1393L701.9381,598.8860L703.6591,598.2594L705.3801,598.0087L707.2334,598.1340
            L709.2192,598.8860L710.9401,600.1393L712.6611,601.6433L714.5144,603.6486L716.5002,606.5312L718.6183,610.0405L719.9421,612.4218L722.3250,617.1844L724.3107,621.5710L726.4288,626.7095
            L727.2231,628.8402L729.0764,634.1041L731.3269,640.9973L734.5041,651.2744L737.2841,660.6742L740.0641,670.7007L741.7851,676.7166"/>
  </g>
  <g style="fill:none; stroke:#0000FF; stroke-width:  2.4000; stroke-linecap:butt; stroke-linejoin:miter; stroke-dasharray: 17 7">
   <path d="M567.3058,749.1580L572.4687,749.5340L579.2202,749.5340L581.2059,749.2833L581.7354,749.0326L589.0164,744.5207L592.0612,743.2674L594.9736,742.3901L596.2974,742.2647L600.4013,741.7634
            L601.9899,742.0141L603.5784,742.6407L604.9023,743.5181L606.8880,745.5234L609.9328,749.2833L610.8594,750.1606L614.3014,752.9179L616.6843,754.5472L618.1405,755.2992L620.7881,756.1765
            L623.7005,756.6778L625.4215,756.6778L628.2015,756.4272L630.8491,755.8005L632.7024,755.0485L635.3501,753.7952L637.7330,752.1659L639.9834,750.4113L642.4987,747.9046L644.8816,745.1474
            L647.2645,742.0141L649.9121,738.0035L652.5597,733.3662L654.5455,729.8570L657.4579,723.9664L661.1645,716.1959L661.8265,714.6919L664.7389,707.6734L669.1075,697.3962L676.2561,679.0979
            L683.1399,662.1782L683.5371,661.0502L687.9057,650.7731L690.8181,644.3812L694.2600,637.3627L696.7753,632.4748L698.0991,630.0935L700.7467,625.8322L703.1296,622.3229L705.3801,619.1897
            L707.8953,616.3070L710.2782,614.0511L712.6611,612.1711L715.1763,610.6671L717.5592,609.6645L719.9421,609.1632L722.4573,609.0378L724.9726,609.4138L727.2231,610.0405L729.8707,611.2938
            L732.5184,613.0484L734.5041,614.6777L737.1517,617.1844L739.7994,620.0670L741.7851,622.4483"/>
  </g>
  <g style="fill:none; stroke:#000000; stroke-width:  1.2000; stroke-linecap:butt; stroke-linejoin:miter; stroke-dasharray:none">
   <path d="M480.0000,560.0000L800.0000,560.0000"/>
   <path d="M494.5455,560.0000L494.5455,568.0000"/>
   <path d="M523.6364,560.0000L523.6364,568.0000"/>
   <path d="M552.7273,560.0000L552.7273,568.0000"/>
   <path d="M581.8182,560.0000L581.8182,568.0000"/>
   <path d="M610.9091,560.0000L610.9091,568.0000"/>
   <path d="M640.0000,560.0000L640.0000,568.0000"/>
   <path d="M669.0909,560.0000L669.0909,568.0000"/>
   <path d="M698.1818,560.0000L698.1818,568.0000"/>
   <path d="M727.2727,560.0000L727.2727,568.0000"/>
   <path d="M756.3636,560.0000L756.3636,568.0000"/>
   <path d="M785.4545,560.0000L785.4545,568.0000"/>
   <path d="M480.0000,560.0000L480.0000,576.0000"/>
   <path d="M509.0909,560.0000L509.0909,576.0000"/>
   <path d="M538.1818,560.0000L538.1818,576.0000"/>
   <path d="M567.2727,560.0000L567.2727,576.0000"/>
   <path d="M596.3636,560.0000L596.3636,576.0000"/>
   <path d="M625.4545,560.0000L625.4545,576.0000"/>
   <path d="M654.5455,560.0000L654.5455,576.0000"/>
   <path d="M683.6364,560.0000L683.6364,576.0000"/>
   <path d="M712.7273,560.0000L712.7273,576.0000"/>
   <path d="M741.8182,560.0000L741.8182,576.0000"/>
   <path d="M770.9091,560.0000L770.9091,576.0000"/>
   <path d="M800.0000,560.0000L800.0000,576.0000"/>
  </g>
  <g style="fill:#000000; fill-rule:nonzero">
   <text   style="font-family:'Times','Nimbus Roman No9 L'; font-style:normal; font-weight:normal; font-size:800.0000" transform="matrix(0.0140,0.0000,-0.0000,-0.0140,477.5000,545.0000)">0</text>
   <text   style="font-family:'Times','Nimbus Roman No9 L'; font-style:normal; font-weight:normal; font-size:800.0000" transform="matrix(0.0140,0.0000,-0.0000,-0.0140,502.5909,545.0000)">0.2</text>
   <text   style="font-family:'Times','Nimbus Roman No9 L'; font-style:normal; font-weight:normal; font-size:800.0000" transform="matrix(0.0140,0.0000,-0.0000,-0.0140,531.6818,545.0000)">0.4</text>
   <text   style="font-family:'Times','Nimbus Roman No9 L'; font-style:normal; font-weight:normal; font-size:800.0000" transform="matrix(0.0140,0.0000,-0.0000,-0.0140,560.7727,544.0000)">0.6</text>
   <text   style="font-family:'Times','Nimbus Roman No9 L'; font-style:normal; font-weight:normal; font-size:800.0000" transform="matrix(0.0140,0.0000,-0.0000,-0.0140,589.8636,545.0000)">0.8</text>
   <text   style="font-family:'Times','Nimbus Roman No9 L'; font-style:normal; font-weight:normal; font-size:800.0000" transform="matrix(0.0140,0.0000,-0.0000,-0.0140,623.4545,544.0000)">1</text>
   <text   style="font-family:'Times','Nimbus Roman No9 L'; font-style:normal; font-weight:normal; font-size:800.0000" transform="matrix(0.0140,0.0000,-0.0000,-0.0140,648.0455,544.0000)">1.2</text>
   <text   style="font-family:'Times','Nimbus Roman No9 L'; font-style:normal; font-weight:normal; font-size:800.0000" transform="matrix(0.0140,0.0000,-0.0000,-0.0140,677.1364,544.0000)">1.4</text>
   <text   style="font-family:'Times','Nimbus Roman No9 L'; font-style:normal; font-weight:normal; font-size:800.0000" transform="matrix(0.0140,0.0000,-0.0000,-0.0140,706.2273,544.0000)">1.6</text>
   <text   style="font-family:'Times','Nimbus Roman No9 L'; font-style:normal; font-weight:normal; font-size:800.0000" transform="matrix(0.0140,0.0000,-0.0000,-0.0140,735.3182,544.0000)">1.8</text>
   <text   style="font-family:'Times','Nimbus Roman No9 L'; font-style:normal; font-weight:normal; font-size:800.0000" transform="matrix(0.0140,0.0000,-0.0000,-0.0140,768.4091,545.0000)">2</text>
   <text   style="font-family:'Times','Nimbus Roman No9 L'; font-style:normal; font-weight:normal; font-size:800.0000" transform="matrix(0.0140,0.0000,-0.0000,-0.0140,793.5000,545.0000)">2.2</text>
   <text   style="font-family:'Times','Nimbus Roman No9 L'; font-style:italic; font-weight:bold; font-size:800.0000" transform="matrix(0.0280,0.0000,-0.0000,-0.0280,609.0000,526.0000)">x</text>
   <text   style="font-family:'Times','Nimbus Roman No9 L'; font-style:italic; font-weight:bold; font-size:800.0000" transform="matrix(0.0198,0.0000,-0.0000,-0.0198,620.0000,517.0400)">Bjorken</text>
  </g>
  <g style="fill:none; stroke:#000000; stroke-width:  1.2000; stroke-linecap:butt; stroke-linejoin:miter; stroke-dasharray:none">
   <path d="M480.0000,560.0000L480.0000,784.0000"/>
   <path d="M480.0000,566.5882L488.0000,566.5882"/>
   <path d="M480.0000,573.1765L488.0000,573.1765"/>
   <path d="M480.0000,579.7647L488.0000,579.7647"/>
   <path d="M480.0000,592.9412L488.0000,592.9412"/>
   <path d="M480.0000,599.5294L488.0000,599.5294"/>
   <path d="M480.0000,606.1176L488.0000,606.1176"/>
   <path d="M480.0000,619.2941L488.0000,619.2941"/>
   <path d="M480.0000,625.8824L488.0000,625.8824"/>
   <path d="M480.0000,632.4706L488.0000,632.4706"/>
   <path d="M480.0000,645.6471L488.0000,645.6471"/>
   <path d="M480.0000,652.2353L488.0000,652.2353"/>
   <path d="M480.0000,658.8235L488.0000,658.8235"/>
   <path d="M480.0000,672.0000L488.0000,672.0000"/>
   <path d="M480.0000,678.5882L488.0000,678.5882"/>
   <path d="M480.0000,685.1765L488.0000,685.1765"/>
   <path d="M480.0000,698.3529L488.0000,698.3529"/>
   <path d="M480.0000,704.9412L488.0000,704.9412"/>
   <path d="M480.0000,711.5294L488.0000,711.5294"/>
   <path d="M480.0000,724.7059L488.0000,724.7059"/>
   <path d="M480.0000,731.2941L488.0000,731.2941"/>
   <path d="M480.0000,737.8824L488.0000,737.8824"/>
   <path d="M480.0000,751.0588L488.0000,751.0588"/>
   <path d="M480.0000,757.6471L488.0000,757.6471"/>
   <path d="M480.0000,764.2353L488.0000,764.2353"/>
   <path d="M480.0000,777.4118L488.0000,777.4118"/>
   <path d="M480.0000,784.0000L488.0000,784.0000"/>
   <path d="M480.0000,586.3529L496.0000,586.3529"/>
   <path d="M480.0000,612.7059L496.0000,612.7059"/>
   <path d="M480.0000,639.0588L496.0000,639.0588"/>
   <path d="M480.0000,665.4118L496.0000,665.4118"/>
   <path d="M480.0000,691.7647L496.0000,691.7647"/>
   <path d="M480.0000,718.1176L496.0000,718.1176"/>
   <path d="M480.0000,744.4706L496.0000,744.4706"/>
   <path d="M480.0000,770.8235L496.0000,770.8235"/>
  </g>
  <g style="fill:#000000; fill-rule:nonzero">
   <text   style="font-family:'Times','Nimbus Roman No9 L'; font-style:normal; font-weight:normal; font-size:800.0000" transform="matrix(0.0140,0.0000,-0.0000,-0.0140,455.0000,582.3529)">-1.2</text>
   <text   style="font-family:'Times','Nimbus Roman No9 L'; font-style:normal; font-weight:normal; font-size:800.0000" transform="matrix(0.0140,0.0000,-0.0000,-0.0140,464.0000,608.7059)">-1</text>
   <text   style="font-family:'Times','Nimbus Roman No9 L'; font-style:normal; font-weight:normal; font-size:800.0000" transform="matrix(0.0140,0.0000,-0.0000,-0.0140,455.0000,635.5588)">-0.8</text>
   <text   style="font-family:'Times','Nimbus Roman No9 L'; font-style:normal; font-weight:normal; font-size:800.0000" transform="matrix(0.0140,0.0000,-0.0000,-0.0140,455.0000,661.4118)">-0.6</text>
   <text   style="font-family:'Times','Nimbus Roman No9 L'; font-style:normal; font-weight:normal; font-size:800.0000" transform="matrix(0.0140,0.0000,-0.0000,-0.0140,455.0000,688.2647)">-0.4</text>
   <text   style="font-family:'Times','Nimbus Roman No9 L'; font-style:normal; font-weight:normal; font-size:800.0000" transform="matrix(0.0140,0.0000,-0.0000,-0.0140,455.0000,714.6176)">-0.2</text>
   <text   style="font-family:'Times','Nimbus Roman No9 L'; font-style:normal; font-weight:normal; font-size:800.0000" transform="matrix(0.0140,0.0000,-0.0000,-0.0140,467.0000,740.9706)">0</text>
   <text   style="font-family:'Times','Nimbus Roman No9 L'; font-style:normal; font-weight:normal; font-size:800.0000" transform="matrix(0.0140,0.0000,-0.0000,-0.0140,459.0000,767.3235)">0.2</text>
   <text   style="font-family:'Times','Nimbus Roman No9 L'; font-style:italic; font-weight:bold; font-size:800.0000" transform="matrix(0.0000,0.0280,0.0280,-0.0000,434.7400,655.5000)">A</text>
   <text   style="font-family:'Times','Nimbus Roman No9 L'; font-style:italic; font-weight:bold; font-size:800.0000" transform="matrix(0.0000,0.0198,0.0198,-0.0000,443.7000,670.5000)">zz</text>
   <text   style="font-family:'Times','Nimbus Roman No9 L'; font-style:italic; font-weight:bold; font-size:800.0000" transform="matrix(0.0000,0.0198,0.0198,-0.0000,421.3000,682.5000)">d</text>
  </g>
  <g style="fill:none; stroke:#000000; stroke-width:  1.2000; stroke-linecap:butt; stroke-linejoin:miter; stroke-dasharray:none">
   <path d="M480.0000,744.4706L800.0000,744.4706"/>
   <path d="M480.0000,744.4706L800.0000,744.4706"/>
   <path d="M480.0000,560.0000L480.0000,784.0000L800.0000,784.0000L800.0000,560.0000z"/>
  </g>
  <g style="fill:#000000; fill-rule:nonzero">
   <text   style="font-family:'Times','Nimbus Roman No9 L'; font-style:normal; font-weight:normal; font-size:800.0000" transform="matrix(0.0140,0.0000,-0.0000,-0.0140,525.2000,664.0000)">Light Cone (CDBonn)</text>
  </g>
  <g style="fill:none; stroke:#0000FF; stroke-width:  2.4000; stroke-linecap:butt; stroke-linejoin:miter; stroke-dasharray: 17 7">
   <path d="M505.2000,666.5000L521.2000,666.5000"/>
  </g>
  <g style="fill:#000000; fill-rule:nonzero">
   <text   style="font-family:'Times','Nimbus Roman No9 L'; font-style:normal; font-weight:normal; font-size:800.0000" transform="matrix(0.0140,0.0000,-0.0000,-0.0140,525.2000,645.0000)">Virtual Nucleon (CDBonn)</text>
  </g>
  <g style="fill:none; stroke:#FF0000; stroke-width:  2.4000; stroke-linecap:butt; stroke-linejoin:miter; stroke-dasharray: 17 7">
   <path d="M505.2000,648.0000L521.2000,648.0000"/>
  </g>
  <g style="fill:#000000; fill-rule:nonzero">
   <text   style="font-family:'Times','Nimbus Roman No9 L'; font-style:normal; font-weight:normal; font-size:800.0000" transform="matrix(0.0140,0.0000,-0.0000,-0.0140,525.2000,627.0000)">Projected</text>
  </g>
  <g style="fill:#FF00FF; fill-rule:nonzero">
   <path  d="M513.2000,633.5000L509.2000,629.5000L513.2000,625.5000L517.2000,629.5000z"/>
  </g>
  <g style="fill:none; stroke:#FF00FF; stroke-width:  1.2000; stroke-linecap:butt; stroke-linejoin:miter; stroke-dasharray:none">
   <path d="M513.2000,633.5000L509.2000,629.5000L513.2000,625.5000L517.2000,629.5000z"/>
  </g>
  <g style="fill:#000000; fill-rule:nonzero">
   <text   style="font-family:'Times','Nimbus Roman No9 L'; font-style:normal; font-weight:normal; font-size:800.0000" transform="matrix(0.0140,0.0000,-0.0000,-0.0140,525.2000,608.0000)">Frankfurt</text>
  </g>
  <g style="fill:none; stroke:#000000; stroke-width:  1.8000; stroke-linecap:butt; stroke-linejoin:miter; stroke-dasharray: 2 5 9 5">
   <path d="M505.2000,612.0000L521.2000,612.0000"/>
  </g>
  <g style="fill:#000000; fill-rule:nonzero">
   <text   style="font-family:'Times','Nimbus Roman No9 L'; font-style:normal; font-weight:normal; font-size:800.0000" transform="matrix(0.0140,0.0000,-0.0000,-0.0140,525.2000,592.0000)">Light Cone (AV18)</text>
  </g>
  <g style="fill:none; stroke:#0000FF; stroke-width:  2.4000; stroke-linecap:butt; stroke-linejoin:miter; stroke-dasharray:none">
   <path d="M505.2000,594.5000L521.2000,594.5000"/>
  </g>
  <g style="fill:#000000; fill-rule:nonzero">
   <text   style="font-family:'Times','Nimbus Roman No9 L'; font-style:normal; font-weight:normal; font-size:800.0000" transform="matrix(0.0140,0.0000,-0.0000,-0.0140,525.2000,573.0000)">Virtual Nucleon (AV18)</text>
  </g>
  <g style="fill:none; stroke:#FF0000; stroke-width:  2.4000; stroke-linecap:butt; stroke-linejoin:miter; stroke-dasharray:none">
   <path d="M505.2000,576.0000L521.2000,576.0000"/>
  </g>
 </g>
</svg>
